<svg xmlns="http://www.w3.org/2000/svg" width="88" height="88" viewBox="0 0 88 88"><g><g><path fill="#fbfaf6" d="M44 0c24.3 0 44 19.7 44 44S68.3 88 44 88 0 68.3 0 44 19.7 0 44 0z"/></g><g><path fill="#828c8e" d="M46.978 27.506V27.5a.75.75 0 0 1 .002-1.5c.014 0 .026.007.04.009 8.267.02 14.963 6.716 14.971 14.98 0 .004.003.007.003.011a.75.75 0 0 1-1.5.006h-.003c0-7.444-6.061-13.5-13.513-13.5zm19.7 26.812a4.495 4.495 0 0 1 .977 4.905A4.502 4.502 0 0 1 63.495 62H42.838l-4.686 4.682A4.492 4.492 0 0 1 34.968 68a4.492 4.492 0 0 1-3.185-1.318l-10.51-10.5a4.495 4.495 0 0 1 0-6.363l4.685-4.682.001-20.637a4.5 4.5 0 0 1 4.503-4.5 4.5 4.5 0 0 1 3.186 1.319zM40.762 59.85l-12.65-12.638c-.013.014-.017.033-.03.046l-4.685 4.683a1.494 1.494 0 0 0 0 2.12l10.51 10.5c.383.382.83.44 1.062.44.232 0 .679-.058 1.061-.44l4.687-4.682c.013-.013.032-.018.045-.03zM60.925 59L28.962 27.068l-.002 18.069c0 .231-.082.447-.133.67l13.34 13.326c.223-.051.439-.133.672-.133zm3.63-2.56L31.525 23.438a1.492 1.492 0 0 0-1.635-.323 1.494 1.494 0 0 0-.927 1.385v.447L63.048 59h.446c.61 0 1.154-.363 1.387-.926a1.494 1.494 0 0 0-.325-1.634zM45.479 21.5A1.5 1.5 0 0 1 46.98 20c.014 0 .026.007.04.009 11.584.02 20.968 9.403 20.977 20.98 0 .004.003.007.003.011a1.5 1.5 0 0 1-3.001.006h-.003c0-9.926-8.082-18-18.018-18V23a1.502 1.502 0 0 1-1.5-1.5z"/></g></g></svg>