<svg xmlns="http://www.w3.org/2000/svg" width="88" height="88" viewBox="0 0 88 88"><g><g><path fill="#fbfaf6" d="M44 0c24.3 0 44 19.7 44 44S68.3 88 44 88 0 68.3 0 44 19.7 0 44 0z"/></g><g><path fill="#828c8e" d="M66.5 26v36a6 6 0 0 1-6 6h-33a6 6 0 0 1-6-6V26a6 6 0 0 1 6-6h33a6 6 0 0 1 6 6zm-3 0c0-1.654-1.346-3-3-3h-33c-1.654 0-3 1.346-3 3v36c0 1.653 1.346 3 3 3h33c1.654 0 3-1.347 3-3zm-3 1.5v27c0 .83-.67 1.5-1.5 1.5H29a1.5 1.5 0 0 1-1.5-1.5v-27c0-.83.671-1.5 1.5-1.5h30c.83 0 1.5.67 1.5 1.5zm-31.5 0v12.13l4.875-5.622a1.5 1.5 0 0 1 2.25 0l11.846 13.426 3.904-4.426a1.498 1.498 0 0 1 2.25 0L59 48.304V27.5zm0 27h23.112l-4.142-4.798-.87-.987L35 35l-6 6.899zm30 0V50.57l-6-6.57-4.03 4.569 5.142 5.932zM45.5 35a4.5 4.5 0 1 1 9 0 4.5 4.5 0 1 1-9 0zm1.5 0c0 1.654 1.346 3 3 3s3-1.346 3-3-1.346-3-3-3-3 1.346-3 3z"/></g></g></svg>