<svg xmlns="http://www.w3.org/2000/svg" width="88" height="88" viewBox="0 0 88 88"><g><g><path fill="#fbfaf6" d="M44 0c24.3 0 44 19.7 44 44S68.3 88 44 88 0 68.3 0 44 19.7 0 44 0z"/></g><g><path fill="#828c8e" d="M54.358 32.437c2.166 6.571 2.166 13.233 0 19.805a1.502 1.502 0 0 1-1.125 1 61.097 61.097 0 0 1-12.26 1.258c-4.068 0-8.193-.423-12.259-1.258a1.503 1.503 0 0 1-1.125-1c-2.165-6.572-2.165-13.234 0-19.805a1.503 1.503 0 0 1 1.125-1.001 61.096 61.096 0 0 1 12.26-1.258c4.069 0 8.193.423 12.26 1.258.526.108.955.49 1.124 1zm-1.427.468a58.884 58.884 0 0 0-23.915 0c-2.073 6.29-2.073 12.578 0 18.868a58.865 58.865 0 0 0 23.915 0c2.073-6.29 2.073-12.578 0-18.868zM66.27 57.02a3 3 0 0 1-2.559 2.283c-3.154.383-6.33.664-9.506.863.172.109.282.22.282.334 0 .83-4.705 1.5-10.51 1.5s-10.51-.67-10.51-1.5c0-.114.11-.225.28-.334-3.175-.199-6.351-.48-9.505-.863a3 3 0 0 1-2.559-2.283c-2.296-9.635-2.296-19.405 0-29.04a3 3 0 0 1 2.559-2.283A164.542 164.542 0 0 1 43.977 24.5c6.548 0 13.187.403 19.734 1.197a3 3 0 0 1 2.559 2.284c2.296 9.634 2.296 19.404 0 29.039zm-2.92-28.345a160.342 160.342 0 0 0-38.746 0c-2.196 9.217-2.196 18.434 0 27.65a160.342 160.342 0 0 0 38.745 0c2.197-9.216 2.197-18.433 0-27.65zm-5.86 5.575a2.252 2.252 0 0 1 4.504 0 2.252 2.252 0 0 1-4.504 0zm1.501 0a.752.752 0 0 0 1.502 0 .751.751 0 0 0-1.502 0zm3.003 18a.75.75 0 0 1-.75.75h-4.505a.75.75 0 1 1 0-1.5h4.504a.75.75 0 0 1 .751.75zm1.502-4.5a.75.75 0 0 1-.751.75H58.24a.75.75 0 1 1 0-1.5h4.504a.75.75 0 0 1 .75.75zm0-4.5a.75.75 0 0 1-.751.75H58.24a.75.75 0 1 1 0-1.5h4.504a.75.75 0 0 1 .75.75zm-22.522-6.322a.785.785 0 0 1-.751.776l-5.629.385c-.41.043-.792.41-.848.82l-.25 2.841a.788.788 0 0 1-.777.75.707.707 0 0 1-.712-.749l.46-4.178c.068-.408.46-.78.87-.827l6.886-.539a.717.717 0 0 1 .75.72z"/></g></g></svg>