<svg xmlns="http://www.w3.org/2000/svg" width="88" height="88" viewBox="0 0 88 88"><g><g><path fill="#fbfaf6" d="M44 0c24.3 0 44 19.7 44 44S68.3 88 44 88 0 68.3 0 44 19.7 0 44 0z"/></g><g><path fill="#828c8e" d="M68 33.5V62c0 2.482-2.018 4.5-4.5 4.5h-39A4.505 4.505 0 0 1 20 62V26c0-2.482 2.019-4.5 4.5-4.5H56c.795 0 1.559.316 2.121.878l9 9A3 3 0 0 1 68 33.5zM65 35H59a4.5 4.5 0 0 1-4.5-4.5h.001v-6h-30A1.5 1.5 0 0 0 23 26v36a1.5 1.5 0 0 0 1.5 1.5h39A1.5 1.5 0 0 0 65 62zm0-1.5l-9-9v6H56c0 1.654 1.346 3 3 3zm-22.5-2.25a.75.75 0 0 1 .75-.75h7.5a.75.75 0 1 1 0 1.5h-7.5a.75.75 0 0 1-.75-.75zm0 4.5a.75.75 0 0 1 .75-.75h7.5a.75.75 0 1 1 0 1.5h-7.5a.75.75 0 0 1-.75-.75zm.75 3.75h18a.75.75 0 1 1 0 1.5h-18a.75.75 0 1 1 0-1.5zM62 49.25a.75.75 0 0 1-.75.75h-34.5a.75.75 0 0 1 0-1.5h34.5c.415 0 .75.335.75.75zm0 4.5a.75.75 0 0 1-.75.75h-34.5a.75.75 0 0 1 0-1.5h34.5c.415 0 .75.334.75.75zm0 4.5a.75.75 0 0 1-.75.75h-34.5a.75.75 0 0 1 0-1.5h34.5c.415 0 .75.334.75.75zm0-13.5a.75.75 0 0 1-.75.75h-34.5a.75.75 0 1 1 0-1.5h34.5a.75.75 0 0 1 .75.75zM26 39.5v-9c0-.829.671-1.5 1.5-1.5H38c.83 0 1.5.671 1.5 1.5v9A1.5 1.5 0 0 1 38 41H27.5a1.5 1.5 0 0 1-1.5-1.5zm3-1.5h7.5v-6H29z"/></g></g></svg>