<svg xmlns="http://www.w3.org/2000/svg" width="88" height="88" viewBox="0 0 88 88"><g><g><path fill="#fbfaf6" d="M44 0c24.3 0 44 19.7 44 44S68.3 88 44 88 0 68.3 0 44 19.7 0 44 0z"/></g><g><path fill="#828c8e" d="M64.045 25.45c-5.27-5.267-13.82-5.267-19.09 0L23.07 47.054c-4.092 4.09-4.092 10.745 0 14.835 4.093 4.088 10.755 4.088 14.848 0l21.885-21.604a7.485 7.485 0 0 0 0-10.595 7.506 7.506 0 0 0-10.606 0L32.744 46.122a1.499 1.499 0 1 0 2.121 2.121l16.453-16.436a4.51 4.51 0 0 1 6.364 0 4.497 4.497 0 0 1 0 6.359L35.797 59.768a7.504 7.504 0 0 1-10.606 0 7.484 7.484 0 0 1 0-10.594l21.671-21.392c4.102-4.097 10.752-4.097 14.848 0a10.476 10.476 0 0 1 .003 14.833l-16.24 16.222a1.49 1.49 0 0 0 0 2.118 1.498 1.498 0 0 0 2.122 0l16.45-16.433c5.273-5.267 5.273-13.805 0-19.071z"/></g></g></svg>