<svg xmlns="http://www.w3.org/2000/svg" width="300" height="300" viewBox="0 0 300 300"><defs><clipPath id="cx57a"><path fill="#fff" d="M150 8.01c78.42 0 141.991 63.57 141.991 141.99 0 78.42-63.571 141.991-141.991 141.991-78.42 0-141.99-63.571-141.99-141.99C8.01 71.58 71.58 8.008 150 8.008z"/></clipPath></defs><g><g><path fill="#d45244" d="M150 0c82.843 0 150 67.158 150 150 0 82.843-67.157 150-150 150S0 232.843 0 150C0 67.158 67.157 0 150 0z"/></g><g><path fill="#d45244" d="M150 8.01c78.42 0 141.991 63.57 141.991 141.99 0 78.42-63.571 141.991-141.991 141.991-78.42 0-141.99-63.571-141.99-141.99C8.01 71.58 71.58 8.008 150 8.008z"/><path fill="none" stroke="#f5eee3" stroke-linecap="round" stroke-linejoin="round" stroke-miterlimit="50" stroke-width="16" d="M150 8.01c78.42 0 141.991 63.57 141.991 141.99 0 78.42-63.571 141.991-141.991 141.991-78.42 0-141.99-63.571-141.99-141.99C8.01 71.58 71.58 8.008 150 8.008z" clip-path="url(&quot;#cx57a&quot;)"/></g><g><path fill="#f5eee3" d="M233.424 110.296l-10.62 31.929a10.634 10.634 0 0 1-10.077 7.275c-1.849 0-3.683-.483-5.311-1.424v65.281c0 5.878-4.756 10.643-10.62 10.643h-95.59c-5.866 0-10.622-4.765-10.622-10.643v-65.28a10.619 10.619 0 0 1-5.31 1.423 10.634 10.634 0 0 1-10.077-7.276l-10.621-31.928a10.66 10.66 0 0 1 3.44-11.677L94.57 77.334A10.6 10.6 0 0 1 101.205 75h95.59a10.6 10.6 0 0 1 6.636 2.334l26.552 21.285a10.66 10.66 0 0 1 3.441 11.677zM129.062 85.643c2.933 6.179 10.72 10.643 19.938 10.643 9.218 0 17.005-4.464 19.938-10.643zm94.286 21.286l-26.553-21.286h-22.181c-2.961 9.162-13.256 15.964-25.614 15.964s-22.653-6.802-25.614-15.964h-22.18l-26.554 21.286 10.622 31.928 15.931-10.642v85.142h95.59v-85.142l15.932 10.642z"/></g></g></svg>